<?xml version="1.0" encoding="utf-8"?>
<!-- Generator: Adobe Illustrator 18.0.0, SVG Export Plug-In . SVG Version: 6.00 Build 0)  -->
<!DOCTYPE svg PUBLIC "-//W3C//DTD SVG 1.1//EN" "http://www.w3.org/Graphics/SVG/1.1/DTD/svg11.dtd">
<svg version="1.1" id="Capa_1" xmlns:sketch="http://www.bohemiancoding.com/sketch/ns"
	 xmlns="http://www.w3.org/2000/svg" xmlns:xlink="http://www.w3.org/1999/xlink" x="0px" y="0px" viewBox="0 0 612 792"
	 enable-background="new 0 0 612 792" xml:space="preserve">
<title>icon 57 air sock</title>
<desc>Created with Sketch.</desc>
<g>
	<path d="M124.3,166.5c-5.7,0-9.6,3.8-9.6,9.6v459c0,5.7,3.8,9.6,9.6,9.6s9.6-3.8,9.6-9.6v-459C133.9,170.3,130,166.5,124.3,166.5z"
		/>
	<path d="M153,166.5v191.2l363.4-38.2V204.8L153,166.5z M248.6,329.1l-76.5,7.6V187.5l76.5,7.7V329.1z M382.5,313.8l-76.5,7.6V200.9
		l76.5,7.7V313.8z M497.2,302.3l-57.4,5.7v-91.8l57.4,5.7V302.3z"/>
</g>
</svg>
