<?xml version="1.0" encoding="utf-8"?>
<!-- Generator: Adobe Illustrator 17.0.2, SVG Export Plug-In . SVG Version: 6.00 Build 0)  -->
<!DOCTYPE svg PUBLIC "-//W3C//DTD SVG 1.1//EN" "http://www.w3.org/Graphics/SVG/1.1/DTD/svg11.dtd">
<svg version="1.1" id="Capa_1" xmlns:sketch="http://www.bohemiancoding.com/sketch/ns"
	 xmlns="http://www.w3.org/2000/svg" xmlns:xlink="http://www.w3.org/1999/xlink" x="0px" y="0px" width="366.475px"
	 height="256.949px" viewBox="304.222 158.313 366.475 256.949" enable-background="new 304.222 158.313 366.475 256.949"
	 xml:space="preserve">
<title>icon 52 barometer</title>
<desc>Created with Sketch.</desc>
<g>
	<circle fill="#FFFFFF" cx="486.788" cy="394.97" r="20.293"/>
	<path fill="#FFFFFF" d="M486.788,158.313c-101.394,0-182.566,81.172-182.566,182.566c0,21.636,4.03,41.929,10.818,60.879H452.99
		c0-2.687,0-4.03,0-6.788c0-12.162,5.374-21.636,14.848-28.424l18.949-100.051l18.949,100.051
		c9.475,5.444,14.848,16.263,14.848,28.424c0,2.687,0,4.03,0,6.788h139.293c6.788-18.949,10.818-39.242,10.818-60.879
		C669.354,239.414,588.182,158.313,486.788,158.313z M339.364,280c1.343-4.03,5.444-5.374,8.131-4.03l39.242,12.162
		c2.687,0,4.03,4.03,4.03,8.131c-1.343,4.03-5.374,5.444-8.131,4.03l-39.242-12.162C339.364,286.788,338.02,282.687,339.364,280z
		 M386.667,366.545l-39.242,12.162c-4.03,1.343-6.788-1.343-8.131-4.03c-1.343-4.03,1.343-6.788,4.03-8.131l39.242-12.162
		c4.03-1.343,6.788,1.343,8.131,4.03C390.768,362.515,389.424,366.545,386.667,366.545z M427.253,244.859
		c-2.687,2.687-6.788,1.343-9.475-1.343l-24.323-32.455c-2.687-2.687-1.343-6.788,1.343-9.475s6.788-1.343,9.475,1.343
		l24.323,32.455C431.283,239.414,429.939,243.515,427.253,244.859z M493.505,219.121c0,4.03-2.687,6.788-6.788,6.788
		c-4.101,0-6.788-2.687-6.788-6.788v-40.586c0-4.03,2.687-6.788,6.788-6.788c4.101,0,6.788,2.687,6.788,6.788V219.121z
		 M586.838,288.131l39.242-12.162c4.03-1.343,6.788,1.343,8.131,4.03c1.343,4.03-1.343,6.788-4.03,8.131l-39.242,12.162
		c-4.03,1.343-6.788-1.343-8.131-4.03C582.808,292.162,584.151,288.131,586.838,288.131z M580.05,211.061l-24.323,32.455
		c-2.687,2.687-6.788,4.03-9.475,1.343c-2.687-2.687-4.03-6.788-1.343-9.475l24.323-32.455c2.687-2.687,6.788-4.03,9.475-1.343
		C581.394,204.273,581.394,208.303,580.05,211.061z M634.141,376.02c-1.343,4.03-5.374,5.374-8.131,4.03l-39.242-12.162
		c-4.03-1.343-5.374-5.374-4.03-8.131c1.343-4.03,5.374-5.374,8.131-4.03l39.242,12.162
		C634.141,367.889,635.485,371.919,634.141,376.02z"/>
</g>
</svg>
