<?xml version="1.0" encoding="utf-8"?>
<!-- Generator: Adobe Illustrator 17.0.2, SVG Export Plug-In . SVG Version: 6.00 Build 0)  -->
<!DOCTYPE svg PUBLIC "-//W3C//DTD SVG 1.1//EN" "http://www.w3.org/Graphics/SVG/1.1/DTD/svg11.dtd">
<svg version="1.1" id="Capa_1" xmlns:sketch="http://www.bohemiancoding.com/sketch/ns"
	 xmlns="http://www.w3.org/2000/svg" xmlns:xlink="http://www.w3.org/1999/xlink" x="0px" y="0px" width="365.061px"
	 height="324.545px" viewBox="304.222 63.636 365.061 324.545" enable-background="new 304.222 63.636 365.061 324.545"
	 xml:space="preserve">
<title>icon 2 cloud sun</title>
<desc>Created with Sketch.</desc>
<g>
	<path fill="#FFFFFF" d="M615.192,192.111c0,4.03,2.687,6.788,6.788,6.788h27.01c4.03,0,6.788-2.687,6.788-6.788
		c0-4.101-2.687-6.788-6.788-6.788h-27.01C617.949,185.323,615.192,189.424,615.192,192.111z"/>
	<path fill="#FFFFFF" d="M599,129.889l18.95-18.949c2.687-2.687,2.687-6.788,0-9.475c-2.687-2.687-6.788-2.687-9.475,0l-18.95,18.95
		c-2.687,2.687-2.687,6.788,0,9.475C592.212,132.576,596.313,132.576,599,129.889z"/>
	<path fill="#FFFFFF" d="M527.303,104.222c4.03,0,6.788-2.687,6.788-6.788v-27.01c0-4.03-2.687-6.788-6.788-6.788
		c-4.101,0-6.788,2.687-6.788,6.788v27.01C520.586,101.465,523.273,104.222,527.303,104.222z"/>
	<path fill="#FFFFFF" d="M628.768,258.364c0-22.98-10.818-43.273-27.01-56.778c0-2.687,0-6.788,0-9.475
		c0-40.586-33.798-74.384-74.384-74.384c-29.768,0-55.434,17.606-67.596,43.273c-6.788-1.343-13.505-2.687-20.293-2.687
		c-52.747,0-94.677,41.929-94.677,94.677c0,1.343,0,4.03,0,5.374c-24.323,10.818-40.586,33.798-40.586,62.222
		c0,37.828,29.768,67.596,67.596,67.596h229.869c37.828,0,67.596-29.768,67.596-67.596
		C669.354,292.162,653.091,269.182,628.768,258.364z M554.384,185.323c-14.849,0-27.01,4.03-39.242,10.818
		c-10.818-14.848-25.667-25.667-41.929-32.455c9.475-18.95,31.111-32.455,54.091-32.455c33.798,0,60.879,27.01,60.879,62.222
		C577.364,188.081,566.545,185.323,554.384,185.323z"/>
	<path fill="#FFFFFF" d="M455.677,129.889c2.687,2.687,6.788,2.687,9.475,0c2.687-2.687,2.687-6.788,0-9.475l-18.949-18.95
		c-2.687-2.687-6.788-2.687-9.475,0c-2.687,2.687-2.687,6.788,0,9.475L455.677,129.889z"/>
</g>
</svg>
