<?xml version="1.0" encoding="utf-8"?>
<!-- Generator: Adobe Illustrator 17.0.2, SVG Export Plug-In . SVG Version: 6.00 Build 0)  -->
<!DOCTYPE svg PUBLIC "-//W3C//DTD SVG 1.1//EN" "http://www.w3.org/Graphics/SVG/1.1/DTD/svg11.dtd">
<svg version="1.1" id="Layer_1" xmlns="http://www.w3.org/2000/svg" xmlns:xlink="http://www.w3.org/1999/xlink" x="0px" y="0px"
	 width="36px" height="36px" viewBox="0 0 36 36" enable-background="new 0 0 36 36" xml:space="preserve">
<path fill="#FFFFFF" d="M27.913,1.693c-0.281-0.114-0.728-0.35-1.262-0.492c-0.532-0.15-1.254-0.401-1.988-0.464
	c-0.743-0.078-1.582-0.1-2.501-0.056c-0.895,0.073-1.804,0.263-2.779,0.515s-1.867,0.67-2.816,1.128
	c-0.93,0.475-1.775,1.064-2.623,1.709c-0.802,0.664-1.561,1.399-2.256,2.181c-0.648,0.803-1.293,1.63-1.789,2.512
	c-0.511,0.876-0.952,1.778-1.272,2.7c-0.683,1.825-0.955,3.706-0.983,5.38c0.003,0.848,0.053,1.636,0.158,2.362
	c0.091,0.718,0.272,1.383,0.411,1.919c0.056,0.253,0.135,0.494,0.213,0.707C11.656,11,19.267,8.456,19.267,8.456
	S19.02,8.63,18.589,8.932c-0.21,0.16-0.491,0.316-0.755,0.571c-0.273,0.242-0.581,0.514-0.918,0.811
	c-0.309,0.327-0.644,0.679-0.999,1.052c-0.324,0.396-0.668,0.814-1.024,1.248c-0.669,0.901-1.343,1.886-1.948,2.915
	c-1.22,2.052-2.225,4.221-2.902,5.873c-0.104,0.256-0.199,0.494-0.287,0.719C7.13,28.206,8.377,34.973,8.45,35.342l1.229-0.239
	c-0.018-0.088-1.298-7.027,1.447-12.926c0.401-0.129,0.831-0.266,1.268-0.444c0.644-0.247,1.332-0.537,2.026-0.869
	c0.704-0.327,1.391-0.712,2.095-1.115c0.702-0.402,1.367-0.862,2.027-1.336c0.643-0.492,1.279-0.989,1.858-1.54
	c0.571-0.565,1.149-1.095,1.649-1.709c1.026-1.176,1.901-2.433,2.613-3.761c0.371-0.625,0.679-1.353,0.981-2.011
	c0.306-0.653,0.565-1.377,0.823-2.041c0.259-0.653,0.5-1.313,0.714-1.957c0.232-0.663,0.433-1.24,0.601-1.715
	c0.192-0.472,0.313-0.966,0.423-1.257c0.099-0.328,0.152-0.501,0.152-0.501S28.203,1.823,27.913,1.693z"/>
</svg>
