<svg version="1.1" id="Layer_1" xmlns="http://www.w3.org/2000/svg" xmlns:xlink="http://www.w3.org/1999/xlink" x="0px" y="0px"
	 width="50px" height="50px" viewBox="0 0 50 50" enable-background="new 0 0 50 50" xml:space="preserve">
<path fill="#FFFFFF" d="M29.123,20.408c0-2.278-1.845-4.123-4.123-4.123s-4.123,1.845-4.123,4.123c0,1.323,0.873,2.842,2.603,3.241
	l-7.076,25.908h17.201l-7.078-25.908C28.125,23.166,29.123,21.732,29.123,20.408z M28.656,38.587h-6.259l5.309-4.387L28.656,38.587z
	 M25.125,25.312l2.156,7.118h-4.336L25.125,25.312z M22.541,34.146h3.895l-4.874,3.552L22.541,34.146z M18.562,47.979l2.406-7.677
	h6.062l-6.323,7.76L18.562,47.979z M29.094,40.436l1.969,7.688l-8.646-0.021L29.094,40.436z M44.968,20.408
	c0,5.333-2.077,10.347-5.846,14.121c-0.333,0.335-0.774,0.505-1.214,0.505c-0.439,0-0.879-0.17-1.214-0.505
	c-0.671-0.671,0.329-0.754,1-1.425c3.121-3.124,5.264-8.278,5.264-12.693c0-10.078-8.839-18.328-17.959-18.328
	S7.042,10.375,7.042,20.412c0,4.415,2.143,9.565,5.267,12.691c0.671,0.673,1.671,0.756,1,1.427c-0.673,0.671-1.756,0.671-2.427,0
	c-3.773-3.768-5.85-8.783-5.85-14.118C5.032,9.402,13.991,0.444,25,0.444S44.968,9.399,44.968,20.408z M31.862,27.271
	c1.565-1.565,2.721-4.647,2.721-6.863c0-4.571-3.833-9.659-9.582-9.659c-5.293,0-9.29,4.042-9.29,9.659
	c0,2.216,0.863,5.298,2.429,6.863c0.673,0.669,1.673,0.754,1,1.427c-0.673,0.671-1.754,0.671-2.427,0
	c-2.214-2.213-3.435-5.158-3.435-8.29c0-6.466,5.256-11.723,11.723-11.723s11.723,5.258,11.723,11.723
	c0,3.133-1.22,6.078-3.435,8.29c-0.335,0.333-0.774,0.503-1.214,0.503s-0.881-0.17-1.214-0.503
	C30.189,28.027,31.189,27.938,31.862,27.271z"/>
</svg>
