<?xml version="1.0" encoding="utf-8"?>
<!-- Generator: Adobe Illustrator 17.0.2, SVG Export Plug-In . SVG Version: 6.00 Build 0)  -->
<!DOCTYPE svg PUBLIC "-//W3C//DTD SVG 1.1//EN" "http://www.w3.org/Graphics/SVG/1.1/DTD/svg11.dtd">
<svg version="1.1" id="Capa_1" xmlns:sketch="http://www.bohemiancoding.com/sketch/ns"
	 xmlns="http://www.w3.org/2000/svg" xmlns:xlink="http://www.w3.org/1999/xlink" x="0px" y="0px" width="202.788px"
	 height="256.95px" viewBox="385.394 158.242 202.788 256.95" enable-background="new 385.394 158.242 202.788 256.95"
	 xml:space="preserve">
<title>icon 36 raindrops</title>
<desc>Created with Sketch.</desc>
<g>
	<path fill="#FFFFFF" d="M452.99,219.121c0-22.98-33.798-60.879-33.798-60.879s-33.798,37.828-33.798,60.879
		c0,17.606,10.818,33.798,33.798,33.798S452.99,235.384,452.99,219.121z"/>
	<path fill="#FFFFFF" d="M554.384,212.404c0,0-33.798,37.828-33.798,60.879c0,17.606,10.818,33.798,33.798,33.798
		s33.798-17.606,33.798-33.798C588.182,250.232,554.384,212.404,554.384,212.404z"/>
	<path fill="#FFFFFF" d="M425.909,381.394c0,17.606,10.818,33.798,33.798,33.798s33.798-17.606,33.798-33.798
		c0-22.98-33.798-60.879-33.798-60.879S425.909,358.414,425.909,381.394z"/>
</g>
</svg>
