<?xml version="1.0" encoding="utf-8"?>
<!-- Generator: Adobe Illustrator 17.0.2, SVG Export Plug-In . SVG Version: 6.00 Build 0)  -->
<!DOCTYPE svg PUBLIC "-//W3C//DTD SVG 1.1//EN" "http://www.w3.org/Graphics/SVG/1.1/DTD/svg11.dtd">
<svg version="1.1" id="Capa_1" xmlns:sketch="http://www.bohemiancoding.com/sketch/ns"
	 xmlns="http://www.w3.org/2000/svg" xmlns:xlink="http://www.w3.org/1999/xlink" x="0px" y="0px" width="365.061px"
	 height="311.04px" viewBox="304.152 158.313 365.061 311.04" enable-background="new 304.152 158.313 365.061 311.04"
	 xml:space="preserve">
<title>icon 4 cloud rain</title>
<desc>Created with Sketch.</desc>
<g>
	<path fill="#FFFFFF" d="M446.202,428.768c-4.03,0-6.788,2.687-6.788,6.788v27.01c0,4.03,2.687,6.788,6.788,6.788
		s6.788-2.687,6.788-6.788v-27.01C452.99,431.455,450.232,428.768,446.202,428.768z"/>
	<path fill="#FFFFFF" d="M405.616,401.687c-4.03,0-6.788,2.687-6.788,6.788v27.01c0,4.03,2.687,6.788,6.788,6.788
		s6.788-2.687,6.788-6.788v-27.01C412.404,404.444,409.646,401.687,405.616,401.687z"/>
	<path fill="#FFFFFF" d="M486.788,401.687c-4.03,0-6.788,2.687-6.788,6.788v27.01c0,4.03,2.687,6.788,6.788,6.788
		c4.101,0,6.788-2.687,6.788-6.788v-27.01C493.505,404.444,490.818,401.687,486.788,401.687z"/>
	<path fill="#FFFFFF" d="M628.768,258.364c0-40.586-33.798-73.04-74.384-73.04c-14.849,0-27.01,4.03-39.242,10.818
		c-17.606-22.98-44.616-37.828-75.727-37.828c-52.747,0-94.677,41.929-94.677,94.677c0,1.343,0,4.03,0,5.374
		c-24.323,10.818-40.586,33.798-40.586,62.222c0,37.828,29.768,67.596,67.596,67.596h229.869c37.828,0,67.596-29.768,67.596-67.596
		C669.354,292.162,653.091,269.182,628.768,258.364z"/>
	<path fill="#FFFFFF" d="M567.889,401.687c-4.03,0-6.788,2.687-6.788,6.788v27.01c0,4.03,2.687,6.788,6.788,6.788
		c4.101,0,6.788-2.687,6.788-6.788v-27.01C574.677,404.444,571.919,401.687,567.889,401.687z"/>
	<path fill="#FFFFFF" d="M527.303,428.768c-4.03,0-6.788,2.687-6.788,6.788v27.01c0,4.03,2.687,6.788,6.788,6.788
		s6.788-2.687,6.788-6.788v-27.01C534.091,431.455,531.404,428.768,527.303,428.768z"/>
</g>
</svg>
