<?xml version="1.0" encoding="utf-8"?>
<!-- Generator: Adobe Illustrator 17.0.2, SVG Export Plug-In . SVG Version: 6.00 Build 0)  -->
<!DOCTYPE svg PUBLIC "-//W3C//DTD SVG 1.1//EN" "http://www.w3.org/Graphics/SVG/1.1/DTD/svg11.dtd">
<svg version="1.1" id="Capa_1" xmlns:sketch="http://www.bohemiancoding.com/sketch/ns"
	 xmlns="http://www.w3.org/2000/svg" xmlns:xlink="http://www.w3.org/1999/xlink" x="0px" y="0px" width="365.061px"
	 height="338.051px" viewBox="304.152 158.313 365.061 338.051" enable-background="new 304.152 158.313 365.061 338.051"
	 xml:space="preserve">
<title>icon 14 cloud raindrops</title>
<desc>Created with Sketch.</desc>
<g>
	<path fill="#FFFFFF" d="M392.111,401.687c0,0-33.798,32.455-33.798,52.747c0,14.848,10.818,28.424,33.798,28.424
		s33.798-14.848,33.798-28.424C425.909,434.141,392.111,401.687,392.111,401.687z"/>
	<path fill="#FFFFFF" d="M486.788,415.192c0,0-33.798,32.455-33.798,52.747c0,14.848,10.818,28.424,33.798,28.424
		s33.798-14.848,33.798-28.424C520.586,447.646,486.788,415.192,486.788,415.192z"/>
	<path fill="#FFFFFF" d="M581.394,401.687c0,0-33.798,32.455-33.798,52.747c0,14.848,10.818,28.424,33.798,28.424
		s33.798-14.848,33.798-28.424C615.192,434.141,581.394,401.687,581.394,401.687z"/>
	<path fill="#FFFFFF" d="M628.768,258.364c0-40.586-33.798-73.04-74.384-73.04c-14.849,0-27.01,4.03-39.242,10.818
		c-17.606-22.98-44.616-37.828-75.727-37.828c-52.747,0-94.677,41.929-94.677,94.677c0,1.343,0,4.03,0,5.374
		c-24.323,10.818-40.586,33.798-40.586,62.222c0,37.828,29.768,67.596,67.596,67.596h229.869c37.828,0,67.596-29.768,67.596-67.596
		C669.354,292.162,653.091,269.182,628.768,258.364z"/>
</g>
</svg>
