<?xml version="1.0" encoding="utf-8"?>
<!-- Generator: Adobe Illustrator 17.0.2, SVG Export Plug-In . SVG Version: 6.00 Build 0)  -->
<!DOCTYPE svg PUBLIC "-//W3C//DTD SVG 1.1//EN" "http://www.w3.org/Graphics/SVG/1.1/DTD/svg11.dtd">
<svg version="1.1" id="Capa_1" xmlns:sketch="http://www.bohemiancoding.com/sketch/ns"
	 xmlns="http://www.w3.org/2000/svg" xmlns:xlink="http://www.w3.org/1999/xlink" x="0px" y="0px" width="351.556px"
	 height="351.556px" viewBox="304.222 104.222 351.556 351.556" enable-background="new 304.222 104.222 351.556 351.556"
	 xml:space="preserve">
<title>icon 56 compass south</title>
<desc>Created with Sketch.</desc>
<g>
	<path fill="#FFFFFF" d="M480,239.414c-22.98,0-40.586,17.606-40.586,40.586c0,27.01,40.586,121.687,40.586,121.687
		S520.586,307.01,520.586,280C520.586,257.02,502.98,239.414,480,239.414z M480,307.01c-14.917,0-27.01-12.093-27.01-27.01
		s12.093-27.01,27.01-27.01c14.917,0,27.01,12.093,27.01,27.01S494.917,307.01,480,307.01z"/>
	<path fill="#FFFFFF" d="M480,104.222c-97.364,0-175.778,78.414-175.778,175.778S382.636,455.778,480,455.778
		S655.778,377.364,655.778,280S577.364,104.222,480,104.222z M480,442.273c-89.232,0-162.273-73.04-162.273-162.273
		S390.768,117.727,480,117.727S642.273,190.768,642.273,280S569.232,442.273,480,442.273z"/>
</g>
</svg>
