<?xml version="1.0" encoding="utf-8"?>
<!-- Generator: Adobe Illustrator 18.0.0, SVG Export Plug-In . SVG Version: 6.00 Build 0)  -->
<!DOCTYPE svg PUBLIC "-//W3C//DTD SVG 1.1//EN" "http://www.w3.org/Graphics/SVG/1.1/DTD/svg11.dtd">
<svg version="1.1" id="Capa_1" xmlns:sketch="http://www.bohemiancoding.com/sketch/ns"
	 xmlns="http://www.w3.org/2000/svg" xmlns:xlink="http://www.w3.org/1999/xlink" x="0px" y="0px" viewBox="0 0 612 792"
	 enable-background="new 0 0 612 792" xml:space="preserve">
<title>icon 29 sun</title>
<desc>Created with Sketch.</desc>
<g>
	<path d="M191.2,405.6c0-5.7-3.8-9.6-9.6-9.6h-38.2c-5.7,0-9.6,5.7-9.6,9.6c0,5.7,3.8,9.6,9.6,9.6h38.2
		C187.4,415.1,191.2,411.3,191.2,405.6z"/>
	<path d="M214.2,493.5l-26.8,26.8c-3.8,3.8-3.8,9.6,0,13.4c3.8,3.8,9.6,3.8,13.4,0l26.8-26.8c3.8-3.8,3.8-9.6,0-13.4
		C223.8,491.6,218,489.7,214.2,493.5z"/>
	<path d="M416.9,317.6l26.8-26.8c3.8-3.8,3.8-9.6,0-13.4c-3.8-3.8-9.6-3.8-13.4,0l-26.8,26.8c-3.8,3.8-3.8,9.6,0,13.4
		C407.4,321.4,415,321.4,416.9,317.6z"/>
	<path d="M315.6,281.2c5.7,0,9.6-3.8,9.6-9.6v-38.2c0-5.7-3.8-9.6-9.6-9.6c-3.8,0-9.6,3.8-9.6,9.6v38.2
		C306,277.4,311.7,281.2,315.6,281.2z"/>
	<path d="M214.2,317.6c3.8,3.8,9.6,3.8,13.4,0c3.8-3.8,3.8-9.6,0-13.4l-26.8-26.8c-3.8-3.8-9.6-3.8-13.4,0c-3.8,3.8-3.8,9.6,0,13.4
		L214.2,317.6z"/>
	<path d="M315.6,531.8c-5.7,0-9.6,3.8-9.6,9.6v38.2c0,5.7,3.8,9.6,9.6,9.6s9.6-3.8,9.6-9.6v-38.2
		C325.1,535.6,321.3,531.8,315.6,531.8z"/>
	<path d="M489.6,396h-38.2c-5.7,0-9.6,3.8-9.6,9.6s3.8,9.6,9.6,9.6h38.2c5.7,0,9.6-3.8,9.6-9.6C499.2,401.7,493.4,396,489.6,396z"/>
	<path d="M416.9,493.5c-3.8-3.8-9.6-3.8-13.4,0c-3.8,3.8-3.8,9.6,0,13.4l26.8,26.8c3.8,3.8,9.6,3.8,13.4,0s3.8-9.6,0-13.4
		L416.9,493.5z"/>
	<circle cx="315.6" cy="405.6" r="105.2"/>
</g>
</svg>
