<?xml version="1.0" encoding="utf-8"?>
<!-- Generator: Adobe Illustrator 17.0.2, SVG Export Plug-In . SVG Version: 6.00 Build 0)  -->
<!DOCTYPE svg PUBLIC "-//W3C//DTD SVG 1.1//EN" "http://www.w3.org/Graphics/SVG/1.1/DTD/svg11.dtd">
<svg version="1.1" id="Capa_1" xmlns:sketch="http://www.bohemiancoding.com/sketch/ns"
	 xmlns="http://www.w3.org/2000/svg" xmlns:xlink="http://www.w3.org/1999/xlink" x="0px" y="0px" width="258.364px"
	 height="175.919px" viewBox="358.242 198.828 258.364 175.919" enable-background="new 358.242 198.828 258.364 175.919"
	 xml:space="preserve">
<title>icon 32 sunset</title>
<desc>Created with Sketch.</desc>
<g>
	<path fill="#FFFFFF" d="M558.414,265.152l18.949-18.949c2.687-2.687,2.687-6.788,0-9.475c-2.687-2.687-6.788-2.687-9.475,0
		l-18.949,18.949c-2.687,2.687-2.687,6.788,0,9.475C551.697,267.838,557.071,267.838,558.414,265.152z"/>
	<path fill="#FFFFFF" d="M486.788,239.414c4.03,0,6.788-2.687,6.788-6.788v-27.01c0-4.03-2.687-6.788-6.788-6.788
		S480,201.515,480,205.616v27.01C480,236.727,484.03,239.414,486.788,239.414z"/>
	<path fill="#FFFFFF" d="M576.02,327.303c0,4.03,2.687,6.788,6.788,6.788h27.01c4.03,0,6.788-2.687,6.788-6.788
		c0-4.101-2.687-6.788-6.788-6.788h-27.01C578.707,320.586,576.02,324.616,576.02,327.303z"/>
	<path fill="#FFFFFF" d="M608.475,361.172H365.03c-2.687,0-6.788,2.687-6.788,6.788c0,4.101,4.03,6.788,6.788,6.788h243.374
		c4.03,0,6.788-2.687,6.788-6.788C615.192,363.859,612.505,361.172,608.475,361.172z"/>
	<path fill="#FFFFFF" d="M365.03,334.091h27.01c4.03,0,6.788-2.687,6.788-6.788c0-4.101-2.687-6.788-6.788-6.788h-27.01
		c-4.03,0-6.788,4.03-6.788,6.788C358.313,331.404,361,334.091,365.03,334.091z"/>
	<path fill="#FFFFFF" d="M415.091,265.152c2.687,2.687,6.788,2.687,9.475,0s2.687-6.788,0-9.475l-18.949-18.949
		c-2.687-2.687-6.788-2.687-9.475,0s-2.687,6.788,0,9.475L415.091,265.152z"/>
	<path fill="#FFFFFF" d="M413.747,334.091h148.768c0-2.687,0-4.03,0-6.788c0-40.586-33.798-74.384-74.384-74.384
		s-74.384,33.798-74.384,74.384C412.404,330.061,412.404,331.404,413.747,334.091z"/>
</g>
</svg>
