<?xml version="1.0" encoding="utf-8"?>
<!-- Generator: Adobe Illustrator 17.0.2, SVG Export Plug-In . SVG Version: 6.00 Build 0)  -->
<!DOCTYPE svg PUBLIC "-//W3C//DTD SVG 1.1//EN" "http://www.w3.org/Graphics/SVG/1.1/DTD/svg11.dtd">
<svg version="1.1" id="Capa_1" xmlns:sketch="http://www.bohemiancoding.com/sketch/ns"
	 xmlns="http://www.w3.org/2000/svg" xmlns:xlink="http://www.w3.org/1999/xlink" x="0px" y="0px" width="162.343px"
	 height="432.798px" viewBox="398.899 63.636 162.343 432.798" enable-background="new 398.899 63.636 162.343 432.798"
	 xml:space="preserve">
<title>icon 66 thermometer</title>
<desc>Created with Sketch.</desc>
<path fill="#FFFFFF" d="M534.091,354.384c0-2.687,0-4.03,0-6.788V117.727c0-29.768-24.323-54.091-54.091-54.091
	c-29.768,0-54.091,24.323-54.091,54.091v229.869c0,2.687,0,4.03,0,6.788c-16.263,14.848-27.01,36.485-27.01,60.879
	c0,44.616,36.485,81.172,81.172,81.172s81.172-36.485,81.172-81.172C561.172,390.869,550.354,369.232,534.091,354.384z M480,469.354
	c-29.768,0-54.091-24.323-54.091-54.091c0-20.293,10.818-37.828,27.01-47.303V117.727c0-14.848,12.162-27.01,27.01-27.01
	c14.849,0,27.01,12.162,27.01,27.01v250.162c16.263,9.475,27.01,27.01,27.01,47.303C534.091,444.96,509.768,469.354,480,469.354z"/>
</svg>
