<?xml version="1.0" encoding="utf-8"?>
<!-- Generator: Adobe Illustrator 18.0.0, SVG Export Plug-In . SVG Version: 6.00 Build 0)  -->
<!DOCTYPE svg PUBLIC "-//W3C//DTD SVG 1.1//EN" "http://www.w3.org/Graphics/SVG/1.1/DTD/svg11.dtd">
<svg version="1.1" id="Capa_1" xmlns:sketch="http://www.bohemiancoding.com/sketch/ns"
	 xmlns="http://www.w3.org/2000/svg" xmlns:xlink="http://www.w3.org/1999/xlink" x="0px" y="0px" viewBox="0 0 612 792"
	 enable-background="new 0 0 612 792" xml:space="preserve">
<title>icon 69 thermometer half</title>
<desc>Created with Sketch.</desc>
<g>
	<path d="M325.1,533.7c0-1.9,0-1.9,0-3.8V338.6c0-11.5-7.6-19.1-19.1-19.1s-19.1,9.6-19.1,19.1v191.2c0,1.9,0,1.9,0,3.8
		c-23,7.7-38.2,28.7-38.2,53.5c0,32.5,24.9,57.4,57.4,57.4s57.4-24.9,57.4-57.4C363.4,562.4,348.1,541.4,325.1,533.7z"/>
	<path d="M382.5,501.2c0-3.8,0-5.7,0-9.6V166.5c0-42.1-34.4-76.5-76.5-76.5s-76.5,34.4-76.5,76.5v325.1c0,3.8,0,5.7,0,9.6
		c-23,21-38.2,51.6-38.2,86.1c0,63.1,51.6,114.8,114.8,114.8s114.8-51.6,114.8-114.8C420.8,552.8,405.5,522.2,382.5,501.2z
		 M306,663.8c-42.1,0-76.5-34.4-76.5-76.5c0-28.7,15.3-53.5,38.2-66.9V166.5c0-21,17.2-38.2,38.2-38.2s38.2,17.2,38.2,38.2v353.8
		c23,13.4,38.2,38.2,38.2,66.9C382.5,629.3,348.1,663.8,306,663.8z"/>
</g>
</svg>
