<?xml version="1.0" encoding="utf-8"?>
<!-- Generator: Adobe Illustrator 17.0.2, SVG Export Plug-In . SVG Version: 6.00 Build 0)  -->
<!DOCTYPE svg PUBLIC "-//W3C//DTD SVG 1.1//EN" "http://www.w3.org/Graphics/SVG/1.1/DTD/svg11.dtd">
<svg version="1.1" id="Capa_1" xmlns:sketch="http://www.bohemiancoding.com/sketch/ns"
	 xmlns="http://www.w3.org/2000/svg" xmlns:xlink="http://www.w3.org/1999/xlink" x="0px" y="0px" width="306.1px"
	 height="432.727px" viewBox="330.982 63.636 306.1 432.727" enable-background="new 330.982 63.636 306.1 432.727"
	 xml:space="preserve">
<title>icon 73 wind turbine</title>
<desc>Created with Sketch.</desc>
<g>
	<path fill="#FFFFFF" d="M509.768,208.303c-4.101-43.273-14.919-144.667-25.737-144.667s-21.636,101.394-25.667,144.667
		c6.788-5.444,16.263-9.475,25.667-9.475C493.434,198.828,502.98,201.586,509.768,208.303z"/>
	<circle fill="#FFFFFF" cx="484.03" cy="239.414" r="27.01"/>
	<path fill="#FFFFFF" d="M524.616,234.04c0,1.343,0,4.03,0,5.374c0,17.677-10.394,32.101-25.667,37.899
		c39.242,17.606,132.505,59.465,137.879,49.99C642.273,317.828,558.414,258.364,524.616,234.04z"/>
	<path fill="#FFFFFF" d="M443.515,239.414c0-1.343,0-4.03,0-5.374c-35.212,24.323-117.657,85.202-112.283,94.677
		c5.374,9.475,98.707-32.455,137.949-50.061L457.02,482.859c0,0,6.788,13.505,27.01,13.505s27.01-13.505,27.01-13.505
		l-12.162-205.475c-4.596,1.697-9.545,2.687-14.848,2.687C461.051,280,443.515,262.394,443.515,239.414z"/>
	<path fill="#FFFFFF" d="M498.949,277.313L498.949,277.313L498.949,277.313L498.949,277.313z"/>
</g>
</svg>
