<?xml version="1.0" encoding="utf-8"?>
<!-- Generator: Adobe Illustrator 17.0.2, SVG Export Plug-In . SVG Version: 6.00 Build 0)  -->
<!DOCTYPE svg PUBLIC "-//W3C//DTD SVG 1.1//EN" "http://www.w3.org/Graphics/SVG/1.1/DTD/svg11.dtd">
<svg version="1.1" id="Capa_1" xmlns:sketch="http://www.bohemiancoding.com/sketch/ns"
	 xmlns="http://www.w3.org/2000/svg" xmlns:xlink="http://www.w3.org/1999/xlink" x="0px" y="0px" width="365.131px"
	 height="270.455px" viewBox="304.222 144.737 365.131 270.455" enable-background="new 304.222 144.737 365.131 270.455"
	 xml:space="preserve">
<title>icon 43 wind</title>
<desc>Created with Sketch.</desc>
<g>
	<path fill="#FFFFFF" d="M547.596,198.828c0-29.768-24.323-54.091-54.091-54.091c-29.768,0-54.091,24.323-54.091,54.091h27.01
		c0-14.848,12.162-27.01,27.01-27.01c14.849,0,27.01,12.162,27.01,27.01s-12.162,27.01-27.01,27.01H331.232v27.01h162.273
		C523.273,252.99,547.596,228.596,547.596,198.828z"/>
	<path fill="#FFFFFF" d="M615.192,198.828c-29.768,0-54.091,24.323-54.091,54.091h27.081c0-14.848,12.162-27.01,27.01-27.01
		c14.849,0,27.01,12.162,27.01,27.01c0,14.848-12.091,27.081-27.01,27.081h-310.97v27.01h311.04
		c29.768,0,54.091-24.323,54.091-54.091S644.96,198.828,615.192,198.828z"/>
	<path fill="#FFFFFF" d="M574.677,334.091H385.323v27.01h189.354c8.131,0,13.505,5.374,13.505,13.505s-5.374,13.505-13.505,13.505
		c-8.131,0-13.505-5.374-13.505-13.505h-27.01c0,21.636,17.606,40.586,40.586,40.586s40.586-17.606,40.586-40.586
		S597.657,334.091,574.677,334.091z"/>
</g>
</svg>
